<svg xmlns="http://www.w3.org/2000/svg" viewBox="0 0 80 80"><title>vpn-icon-2</title><path d="M80,64A16,16,0,0,1,64,80H16A16,16,0,0,1,0,64V16A16,16,0,0,1,16,0H64A16,16,0,0,1,80,16Z" fill="#e61e25"/><path d="M40,15.71,19.29,24.94c0,17.65,1.63,31.9,20.71,39.35,19-7.45,20.71-21.7,20.71-39.35Zm4.15,29.23-5.47,5.54a5.34,5.34,0,0,1-3.83,1.58,5.27,5.27,0,0,1-3.79-1.58L29.62,49A5.5,5.5,0,0,1,28,45.18a5.33,5.33,0,0,1,1.59-3.84l2.72-2.76,2,2-2.71,2.75a2.56,2.56,0,0,0,0,3.64l1.44,1.46a2.47,2.47,0,0,0,1.79.77,2.51,2.51,0,0,0,1.8-.77l4.63-4.7V37.29h2.83v7.65Zm6.23-6.4L47.66,41.3l-2-2,2.71-2.75a2.56,2.56,0,0,0,0-3.64l-1.44-1.46a2.29,2.29,0,0,0-1.75-.73,2.51,2.51,0,0,0-1.8.77l-4.67,4.65v6.52H35.89V34.94l5.47-5.54a5.29,5.29,0,0,1,3.79-1.62,5.15,5.15,0,0,1,3.79,1.62l1.44,1.45A5.53,5.53,0,0,1,52,34.7,5.33,5.33,0,0,1,50.38,38.54Z" fill="#fff"/></svg>